<svg xmlns="http://www.w3.org/2000/svg" width="1604.8" height="244" viewBox="0 0 1604.8 244" font-family="'JetBrains Mono', 'SF Mono', Menlo, Consolas, monospace" font-size="14"><rect width="100%" height="100%" rx="12" fill="#ECE9E1"/><text x="20" y="45" fill="#5E5A51" font-size="12">Clay</text><rect x="112" y="20" width="1472.8" height="42" rx="8" fill="#1A1917"/><rect x="126.0" y="28" width="25.8" height="26" fill="#D97757" shape-rendering="crispEdges"/><text x="126.0" y="46.04" textLength="25.2" lengthAdjust="spacingAndGlyphs" fill="#1A1917" xml:space="preserve"> ✻ </text><rect x="151.2" y="28" width="67.8" height="26" fill="#D97757" shape-rendering="crispEdges"/><text x="151.2" y="46.04" textLength="67.2" lengthAdjust="spacingAndGlyphs" fill="#1A1917" font-weight="700" xml:space="preserve">Opus 5.5</text><rect x="218.4" y="28" width="42.6" height="26" fill="#D97757" shape-rendering="crispEdges"/><text x="218.4" y="46.04" textLength="42.0" lengthAdjust="spacingAndGlyphs" fill="#1A1917" xml:space="preserve"> ●●●●</text><rect x="260.4" y="28" width="17.4" height="26" fill="#D97757" shape-rendering="crispEdges"/><text x="260.4" y="46.04" textLength="16.8" lengthAdjust="spacingAndGlyphs" fill="#A9583C" xml:space="preserve">○ </text><rect x="285.6" y="28" width="9.0" height="26" fill="#2A2825" shape-rendering="crispEdges"/><rect x="294.0" y="28" width="177.0" height="26" fill="#2A2825" shape-rendering="crispEdges"/><text x="294.0" y="46.04" textLength="176.4" lengthAdjust="spacingAndGlyphs" fill="#E8E5DA" font-weight="700" xml:space="preserve">~/code/cc-status-band</text><rect x="470.4" y="28" width="9.0" height="26" fill="#2A2825" shape-rendering="crispEdges"/><rect x="487.2" y="28" width="9.0" height="26" fill="#33302C" shape-rendering="crispEdges"/><rect x="495.6" y="28" width="17.4" height="26" fill="#33302C" shape-rendering="crispEdges"/><text x="495.6" y="46.04" textLength="16.8" lengthAdjust="spacingAndGlyphs" fill="#D97757" xml:space="preserve">⎇ </text><rect x="512.4" y="28" width="34.2" height="26" fill="#33302C" shape-rendering="crispEdges"/><text x="512.4" y="46.04" textLength="33.6" lengthAdjust="spacingAndGlyphs" fill="#E8E5DA" xml:space="preserve">main</text><rect x="546.0" y="28" width="25.8" height="26" fill="#33302C" shape-rendering="crispEdges"/><text x="546.0" y="46.04" textLength="25.2" lengthAdjust="spacingAndGlyphs" fill="#A3C281" xml:space="preserve"> +2</text><rect x="571.2" y="28" width="25.8" height="26" fill="#33302C" shape-rendering="crispEdges"/><text x="571.2" y="46.04" textLength="25.2" lengthAdjust="spacingAndGlyphs" fill="#E9B44C" xml:space="preserve"> ~3</text><rect x="596.4" y="28" width="34.2" height="26" fill="#33302C" shape-rendering="crispEdges"/><text x="596.4" y="46.04" textLength="33.6" lengthAdjust="spacingAndGlyphs" fill="#8C877B" xml:space="preserve"> ↑1 </text><rect x="638.4" y="28" width="9.0" height="26" fill="#2A2825" shape-rendering="crispEdges"/><rect x="646.8" y="28" width="34.2" height="26" fill="#2A2825" shape-rendering="crispEdges"/><text x="646.8" y="46.04" textLength="33.6" lengthAdjust="spacingAndGlyphs" fill="#8C877B" xml:space="preserve">ctx </text><rect x="680.4" y="28" width="34.2" height="26" fill="#2A2825" shape-rendering="crispEdges"/><text x="680.4" y="46.04" textLength="33.6" lengthAdjust="spacingAndGlyphs" fill="#A3C281" xml:space="preserve">━━━━</text><rect x="714.0" y="28" width="59.4" height="26" fill="#2A2825" shape-rendering="crispEdges"/><text x="714.0" y="46.04" textLength="58.8" lengthAdjust="spacingAndGlyphs" fill="#524D45" xml:space="preserve">────── </text><rect x="772.8" y="28" width="25.8" height="26" fill="#2A2825" shape-rendering="crispEdges"/><text x="772.8" y="46.04" textLength="25.2" lengthAdjust="spacingAndGlyphs" fill="#A3C281" font-weight="700" xml:space="preserve">42%</text><rect x="798.0" y="28" width="84.6" height="26" fill="#2A2825" shape-rendering="crispEdges"/><text x="798.0" y="46.04" textLength="84.0" lengthAdjust="spacingAndGlyphs" fill="#8C877B" xml:space="preserve"> 84k/200k </text><rect x="890.4" y="28" width="9.0" height="26" fill="#33302C" shape-rendering="crispEdges"/><rect x="898.8" y="28" width="25.8" height="26" fill="#33302C" shape-rendering="crispEdges"/><text x="898.8" y="46.04" textLength="25.2" lengthAdjust="spacingAndGlyphs" fill="#8C877B" xml:space="preserve">5h </text><rect x="924.0" y="28" width="51.0" height="26" fill="#33302C" shape-rendering="crispEdges"/><text x="924.0" y="46.04" textLength="50.4" lengthAdjust="spacingAndGlyphs" fill="#A3C281" xml:space="preserve">━━━━━━</text><rect x="974.4" y="28" width="25.8" height="26" fill="#33302C" shape-rendering="crispEdges"/><text x="974.4" y="46.04" textLength="25.2" lengthAdjust="spacingAndGlyphs" fill="#524D45" xml:space="preserve">── </text><rect x="999.6" y="28" width="25.8" height="26" fill="#33302C" shape-rendering="crispEdges"/><text x="999.6" y="46.04" textLength="25.2" lengthAdjust="spacingAndGlyphs" fill="#A3C281" font-weight="700" xml:space="preserve">72%</text><rect x="1024.8" y="28" width="109.8" height="26" fill="#33302C" shape-rendering="crispEdges"/><text x="1024.8" y="46.04" textLength="109.2" lengthAdjust="spacingAndGlyphs" fill="#8C877B" xml:space="preserve"> left ↻2h14m </text><rect x="1142.4" y="28" width="9.0" height="26" fill="#2A2825" shape-rendering="crispEdges"/><rect x="1150.8" y="28" width="25.8" height="26" fill="#2A2825" shape-rendering="crispEdges"/><text x="1150.8" y="46.04" textLength="25.2" lengthAdjust="spacingAndGlyphs" fill="#8C877B" xml:space="preserve">7d </text><rect x="1176.0" y="28" width="42.6" height="26" fill="#2A2825" shape-rendering="crispEdges"/><text x="1176.0" y="46.04" textLength="42.0" lengthAdjust="spacingAndGlyphs" fill="#A3C281" xml:space="preserve">━━━━╸</text><rect x="1218.0" y="28" width="34.2" height="26" fill="#2A2825" shape-rendering="crispEdges"/><text x="1218.0" y="46.04" textLength="33.6" lengthAdjust="spacingAndGlyphs" fill="#524D45" xml:space="preserve">─── </text><rect x="1251.6" y="28" width="25.8" height="26" fill="#2A2825" shape-rendering="crispEdges"/><text x="1251.6" y="46.04" textLength="25.2" lengthAdjust="spacingAndGlyphs" fill="#A3C281" font-weight="700" xml:space="preserve">59%</text><rect x="1276.8" y="28" width="84.6" height="26" fill="#2A2825" shape-rendering="crispEdges"/><text x="1276.8" y="46.04" textLength="84.0" lengthAdjust="spacingAndGlyphs" fill="#8C877B" xml:space="preserve"> left ↻3d </text><rect x="1369.2" y="28" width="51.0" height="26" fill="#33302C" shape-rendering="crispEdges"/><text x="1369.2" y="46.04" textLength="50.4" lengthAdjust="spacingAndGlyphs" fill="#E8E5DA" xml:space="preserve"> $1.42</text><rect x="1419.6" y="28" width="67.8" height="26" fill="#33302C" shape-rendering="crispEdges"/><text x="1419.6" y="46.04" textLength="67.2" lengthAdjust="spacingAndGlyphs" fill="#8C877B" xml:space="preserve">  ◷ 23m </text><text x="20" y="99" fill="#5E5A51" font-size="12">Paper</text><rect x="112" y="74" width="1472.8" height="42" rx="8" fill="#FAF9F5"/><rect x="126.0" y="82" width="9.0" height="26" fill="#141413" shape-rendering="crispEdges"/><rect x="134.4" y="82" width="17.4" height="26" fill="#141413" shape-rendering="crispEdges"/><text x="134.4" y="100.04" textLength="16.8" lengthAdjust="spacingAndGlyphs" fill="#E08A68" xml:space="preserve">✻ </text><rect x="151.2" y="82" width="67.8" height="26" fill="#141413" shape-rendering="crispEdges"/><text x="151.2" y="100.04" textLength="67.2" lengthAdjust="spacingAndGlyphs" fill="#FAF9F5" font-weight="700" xml:space="preserve">Opus 5.5</text><rect x="218.4" y="82" width="42.6" height="26" fill="#141413" shape-rendering="crispEdges"/><text x="218.4" y="100.04" textLength="42.0" lengthAdjust="spacingAndGlyphs" fill="#FAF9F5" xml:space="preserve"> ●●●●</text><rect x="260.4" y="82" width="17.4" height="26" fill="#141413" shape-rendering="crispEdges"/><text x="260.4" y="100.04" textLength="16.8" lengthAdjust="spacingAndGlyphs" fill="#5E5D59" xml:space="preserve">○ </text><rect x="285.6" y="82" width="9.0" height="26" fill="#ECE9E0" shape-rendering="crispEdges"/><rect x="294.0" y="82" width="177.0" height="26" fill="#ECE9E0" shape-rendering="crispEdges"/><text x="294.0" y="100.04" textLength="176.4" lengthAdjust="spacingAndGlyphs" fill="#2B2A27" font-weight="700" xml:space="preserve">~/code/cc-status-band</text><rect x="470.4" y="82" width="9.0" height="26" fill="#ECE9E0" shape-rendering="crispEdges"/><rect x="487.2" y="82" width="9.0" height="26" fill="#E2DED3" shape-rendering="crispEdges"/><rect x="495.6" y="82" width="17.4" height="26" fill="#E2DED3" shape-rendering="crispEdges"/><text x="495.6" y="100.04" textLength="16.8" lengthAdjust="spacingAndGlyphs" fill="#B4552F" xml:space="preserve">⎇ </text><rect x="512.4" y="82" width="34.2" height="26" fill="#E2DED3" shape-rendering="crispEdges"/><text x="512.4" y="100.04" textLength="33.6" lengthAdjust="spacingAndGlyphs" fill="#2B2A27" xml:space="preserve">main</text><rect x="546.0" y="82" width="25.8" height="26" fill="#E2DED3" shape-rendering="crispEdges"/><text x="546.0" y="100.04" textLength="25.2" lengthAdjust="spacingAndGlyphs" fill="#4A7533" xml:space="preserve"> +2</text><rect x="571.2" y="82" width="25.8" height="26" fill="#E2DED3" shape-rendering="crispEdges"/><text x="571.2" y="100.04" textLength="25.2" lengthAdjust="spacingAndGlyphs" fill="#9A5F0C" xml:space="preserve"> ~3</text><rect x="596.4" y="82" width="34.2" height="26" fill="#E2DED3" shape-rendering="crispEdges"/><text x="596.4" y="100.04" textLength="33.6" lengthAdjust="spacingAndGlyphs" fill="#6E6B64" xml:space="preserve"> ↑1 </text><rect x="638.4" y="82" width="9.0" height="26" fill="#ECE9E0" shape-rendering="crispEdges"/><rect x="646.8" y="82" width="34.2" height="26" fill="#ECE9E0" shape-rendering="crispEdges"/><text x="646.8" y="100.04" textLength="33.6" lengthAdjust="spacingAndGlyphs" fill="#6E6B64" xml:space="preserve">ctx </text><rect x="680.4" y="82" width="34.2" height="26" fill="#ECE9E0" shape-rendering="crispEdges"/><text x="680.4" y="100.04" textLength="33.6" lengthAdjust="spacingAndGlyphs" fill="#4A7533" xml:space="preserve">━━━━</text><rect x="714.0" y="82" width="59.4" height="26" fill="#ECE9E0" shape-rendering="crispEdges"/><text x="714.0" y="100.04" textLength="58.8" lengthAdjust="spacingAndGlyphs" fill="#C9C3B5" xml:space="preserve">────── </text><rect x="772.8" y="82" width="25.8" height="26" fill="#ECE9E0" shape-rendering="crispEdges"/><text x="772.8" y="100.04" textLength="25.2" lengthAdjust="spacingAndGlyphs" fill="#4A7533" font-weight="700" xml:space="preserve">42%</text><rect x="798.0" y="82" width="84.6" height="26" fill="#ECE9E0" shape-rendering="crispEdges"/><text x="798.0" y="100.04" textLength="84.0" lengthAdjust="spacingAndGlyphs" fill="#6E6B64" xml:space="preserve"> 84k/200k </text><rect x="890.4" y="82" width="9.0" height="26" fill="#E2DED3" shape-rendering="crispEdges"/><rect x="898.8" y="82" width="25.8" height="26" fill="#E2DED3" shape-rendering="crispEdges"/><text x="898.8" y="100.04" textLength="25.2" lengthAdjust="spacingAndGlyphs" fill="#6E6B64" xml:space="preserve">5h </text><rect x="924.0" y="82" width="51.0" height="26" fill="#E2DED3" shape-rendering="crispEdges"/><text x="924.0" y="100.04" textLength="50.4" lengthAdjust="spacingAndGlyphs" fill="#4A7533" xml:space="preserve">━━━━━━</text><rect x="974.4" y="82" width="25.8" height="26" fill="#E2DED3" shape-rendering="crispEdges"/><text x="974.4" y="100.04" textLength="25.2" lengthAdjust="spacingAndGlyphs" fill="#C9C3B5" xml:space="preserve">── </text><rect x="999.6" y="82" width="25.8" height="26" fill="#E2DED3" shape-rendering="crispEdges"/><text x="999.6" y="100.04" textLength="25.2" lengthAdjust="spacingAndGlyphs" fill="#4A7533" font-weight="700" xml:space="preserve">72%</text><rect x="1024.8" y="82" width="109.8" height="26" fill="#E2DED3" shape-rendering="crispEdges"/><text x="1024.8" y="100.04" textLength="109.2" lengthAdjust="spacingAndGlyphs" fill="#6E6B64" xml:space="preserve"> left ↻2h14m </text><rect x="1142.4" y="82" width="9.0" height="26" fill="#ECE9E0" shape-rendering="crispEdges"/><rect x="1150.8" y="82" width="25.8" height="26" fill="#ECE9E0" shape-rendering="crispEdges"/><text x="1150.8" y="100.04" textLength="25.2" lengthAdjust="spacingAndGlyphs" fill="#6E6B64" xml:space="preserve">7d </text><rect x="1176.0" y="82" width="42.6" height="26" fill="#ECE9E0" shape-rendering="crispEdges"/><text x="1176.0" y="100.04" textLength="42.0" lengthAdjust="spacingAndGlyphs" fill="#4A7533" xml:space="preserve">━━━━╸</text><rect x="1218.0" y="82" width="34.2" height="26" fill="#ECE9E0" shape-rendering="crispEdges"/><text x="1218.0" y="100.04" textLength="33.6" lengthAdjust="spacingAndGlyphs" fill="#C9C3B5" xml:space="preserve">─── </text><rect x="1251.6" y="82" width="25.8" height="26" fill="#ECE9E0" shape-rendering="crispEdges"/><text x="1251.6" y="100.04" textLength="25.2" lengthAdjust="spacingAndGlyphs" fill="#4A7533" font-weight="700" xml:space="preserve">59%</text><rect x="1276.8" y="82" width="84.6" height="26" fill="#ECE9E0" shape-rendering="crispEdges"/><text x="1276.8" y="100.04" textLength="84.0" lengthAdjust="spacingAndGlyphs" fill="#6E6B64" xml:space="preserve"> left ↻3d </text><rect x="1369.2" y="82" width="51.0" height="26" fill="#E2DED3" shape-rendering="crispEdges"/><text x="1369.2" y="100.04" textLength="50.4" lengthAdjust="spacingAndGlyphs" fill="#2B2A27" xml:space="preserve"> $1.42</text><rect x="1419.6" y="82" width="67.8" height="26" fill="#E2DED3" shape-rendering="crispEdges"/><text x="1419.6" y="100.04" textLength="67.2" lengthAdjust="spacingAndGlyphs" fill="#6E6B64" xml:space="preserve">  ◷ 23m </text><text x="20" y="153" fill="#5E5A51" font-size="12">Aurora</text><rect x="112" y="128" width="1472.8" height="42" rx="8" fill="#0E1120"/><rect x="126.0" y="136" width="25.8" height="26" fill="#8B6CFF" shape-rendering="crispEdges"/><text x="126.0" y="154.04" textLength="25.2" lengthAdjust="spacingAndGlyphs" fill="#0E1120" xml:space="preserve"> ✻ </text><rect x="151.2" y="136" width="67.8" height="26" fill="#8B6CFF" shape-rendering="crispEdges"/><text x="151.2" y="154.04" textLength="67.2" lengthAdjust="spacingAndGlyphs" fill="#0E1120" font-weight="700" xml:space="preserve">Opus 5.5</text><rect x="218.4" y="136" width="42.6" height="26" fill="#8B6CFF" shape-rendering="crispEdges"/><text x="218.4" y="154.04" textLength="42.0" lengthAdjust="spacingAndGlyphs" fill="#0E1120" xml:space="preserve"> ●●●●</text><rect x="260.4" y="136" width="17.4" height="26" fill="#8B6CFF" shape-rendering="crispEdges"/><text x="260.4" y="154.04" textLength="16.8" lengthAdjust="spacingAndGlyphs" fill="#5B45B8" xml:space="preserve">○ </text><rect x="277.2" y="136" width="9.0" height="26" fill="#1A2038" shape-rendering="crispEdges"/><rect x="285.6" y="136" width="177.0" height="26" fill="#1A2038" shape-rendering="crispEdges"/><text x="285.6" y="154.04" textLength="176.4" lengthAdjust="spacingAndGlyphs" fill="#DCE1F5" font-weight="700" xml:space="preserve">~/code/cc-status-band</text><rect x="462.0" y="136" width="9.0" height="26" fill="#1A2038" shape-rendering="crispEdges"/><rect x="470.4" y="136" width="9.0" height="26" fill="#232B4A" shape-rendering="crispEdges"/><rect x="478.8" y="136" width="17.4" height="26" fill="#232B4A" shape-rendering="crispEdges"/><text x="478.8" y="154.04" textLength="16.8" lengthAdjust="spacingAndGlyphs" fill="#6FE3D0" xml:space="preserve">⎇ </text><rect x="495.6" y="136" width="34.2" height="26" fill="#232B4A" shape-rendering="crispEdges"/><text x="495.6" y="154.04" textLength="33.6" lengthAdjust="spacingAndGlyphs" fill="#DCE1F5" xml:space="preserve">main</text><rect x="529.2" y="136" width="25.8" height="26" fill="#232B4A" shape-rendering="crispEdges"/><text x="529.2" y="154.04" textLength="25.2" lengthAdjust="spacingAndGlyphs" fill="#6FE3D0" xml:space="preserve"> +2</text><rect x="554.4" y="136" width="25.8" height="26" fill="#232B4A" shape-rendering="crispEdges"/><text x="554.4" y="154.04" textLength="25.2" lengthAdjust="spacingAndGlyphs" fill="#FFCB6B" xml:space="preserve"> ~3</text><rect x="579.6" y="136" width="34.2" height="26" fill="#232B4A" shape-rendering="crispEdges"/><text x="579.6" y="154.04" textLength="33.6" lengthAdjust="spacingAndGlyphs" fill="#8089AD" xml:space="preserve"> ↑1 </text><rect x="613.2" y="136" width="9.0" height="26" fill="#1A2038" shape-rendering="crispEdges"/><rect x="621.6" y="136" width="34.2" height="26" fill="#1A2038" shape-rendering="crispEdges"/><text x="621.6" y="154.04" textLength="33.6" lengthAdjust="spacingAndGlyphs" fill="#8089AD" xml:space="preserve">ctx </text><rect x="655.2" y="136" width="34.2" height="26" fill="#1A2038" shape-rendering="crispEdges"/><text x="655.2" y="154.04" textLength="33.6" lengthAdjust="spacingAndGlyphs" fill="#6FE3D0" xml:space="preserve">━━━━</text><rect x="688.8" y="136" width="59.4" height="26" fill="#1A2038" shape-rendering="crispEdges"/><text x="688.8" y="154.04" textLength="58.8" lengthAdjust="spacingAndGlyphs" fill="#3B4570" xml:space="preserve">────── </text><rect x="747.6" y="136" width="25.8" height="26" fill="#1A2038" shape-rendering="crispEdges"/><text x="747.6" y="154.04" textLength="25.2" lengthAdjust="spacingAndGlyphs" fill="#6FE3D0" font-weight="700" xml:space="preserve">42%</text><rect x="772.8" y="136" width="84.6" height="26" fill="#1A2038" shape-rendering="crispEdges"/><text x="772.8" y="154.04" textLength="84.0" lengthAdjust="spacingAndGlyphs" fill="#8089AD" xml:space="preserve"> 84k/200k </text><rect x="856.8" y="136" width="9.0" height="26" fill="#232B4A" shape-rendering="crispEdges"/><rect x="865.2" y="136" width="25.8" height="26" fill="#232B4A" shape-rendering="crispEdges"/><text x="865.2" y="154.04" textLength="25.2" lengthAdjust="spacingAndGlyphs" fill="#8089AD" xml:space="preserve">5h </text><rect x="890.4" y="136" width="51.0" height="26" fill="#232B4A" shape-rendering="crispEdges"/><text x="890.4" y="154.04" textLength="50.4" lengthAdjust="spacingAndGlyphs" fill="#6FE3D0" xml:space="preserve">━━━━━━</text><rect x="940.8" y="136" width="25.8" height="26" fill="#232B4A" shape-rendering="crispEdges"/><text x="940.8" y="154.04" textLength="25.2" lengthAdjust="spacingAndGlyphs" fill="#3B4570" xml:space="preserve">── </text><rect x="966.0" y="136" width="25.8" height="26" fill="#232B4A" shape-rendering="crispEdges"/><text x="966.0" y="154.04" textLength="25.2" lengthAdjust="spacingAndGlyphs" fill="#6FE3D0" font-weight="700" xml:space="preserve">72%</text><rect x="991.2" y="136" width="109.8" height="26" fill="#232B4A" shape-rendering="crispEdges"/><text x="991.2" y="154.04" textLength="109.2" lengthAdjust="spacingAndGlyphs" fill="#8089AD" xml:space="preserve"> left ↻2h14m </text><rect x="1100.4" y="136" width="9.0" height="26" fill="#1A2038" shape-rendering="crispEdges"/><rect x="1108.8" y="136" width="25.8" height="26" fill="#1A2038" shape-rendering="crispEdges"/><text x="1108.8" y="154.04" textLength="25.2" lengthAdjust="spacingAndGlyphs" fill="#8089AD" xml:space="preserve">7d </text><rect x="1134.0" y="136" width="42.6" height="26" fill="#1A2038" shape-rendering="crispEdges"/><text x="1134.0" y="154.04" textLength="42.0" lengthAdjust="spacingAndGlyphs" fill="#6FE3D0" xml:space="preserve">━━━━╸</text><rect x="1176.0" y="136" width="34.2" height="26" fill="#1A2038" shape-rendering="crispEdges"/><text x="1176.0" y="154.04" textLength="33.6" lengthAdjust="spacingAndGlyphs" fill="#3B4570" xml:space="preserve">─── </text><rect x="1209.6" y="136" width="25.8" height="26" fill="#1A2038" shape-rendering="crispEdges"/><text x="1209.6" y="154.04" textLength="25.2" lengthAdjust="spacingAndGlyphs" fill="#6FE3D0" font-weight="700" xml:space="preserve">59%</text><rect x="1234.8" y="136" width="84.6" height="26" fill="#1A2038" shape-rendering="crispEdges"/><text x="1234.8" y="154.04" textLength="84.0" lengthAdjust="spacingAndGlyphs" fill="#8089AD" xml:space="preserve"> left ↻3d </text><rect x="1318.8" y="136" width="51.0" height="26" fill="#232B4A" shape-rendering="crispEdges"/><text x="1318.8" y="154.04" textLength="50.4" lengthAdjust="spacingAndGlyphs" fill="#DCE1F5" xml:space="preserve"> $1.42</text><rect x="1369.2" y="136" width="67.8" height="26" fill="#232B4A" shape-rendering="crispEdges"/><text x="1369.2" y="154.04" textLength="67.2" lengthAdjust="spacingAndGlyphs" fill="#8089AD" xml:space="preserve">  ◷ 23m </text><text x="20" y="207" fill="#5E5A51" font-size="12">Ink</text><rect x="112" y="182" width="1472.8" height="42" rx="8" fill="#111111"/><text x="126.0" y="208.04" textLength="16.8" lengthAdjust="spacingAndGlyphs" fill="#D97757" xml:space="preserve">✻ </text><text x="142.8" y="208.04" textLength="67.2" lengthAdjust="spacingAndGlyphs" fill="#F2F2F2" font-weight="700" xml:space="preserve">Opus 5.5</text><text x="210.0" y="208.04" textLength="42.0" lengthAdjust="spacingAndGlyphs" fill="#D97757" xml:space="preserve"> ●●●●</text><text x="252.0" y="208.04" textLength="8.4" lengthAdjust="spacingAndGlyphs" fill="#4D4D4D" xml:space="preserve">○</text><text x="260.4" y="208.04" textLength="25.2" lengthAdjust="spacingAndGlyphs" fill="#3A3A3A" xml:space="preserve"> │ </text><text x="285.6" y="208.04" textLength="176.4" lengthAdjust="spacingAndGlyphs" fill="#CFCFCF" font-weight="700" xml:space="preserve">~/code/cc-status-band</text><text x="462.0" y="208.04" textLength="25.2" lengthAdjust="spacingAndGlyphs" fill="#3A3A3A" xml:space="preserve"> │ </text><text x="487.2" y="208.04" textLength="16.8" lengthAdjust="spacingAndGlyphs" fill="#9A9A9A" xml:space="preserve">⎇ </text><text x="504.0" y="208.04" textLength="33.6" lengthAdjust="spacingAndGlyphs" fill="#CFCFCF" xml:space="preserve">main</text><text x="537.6" y="208.04" textLength="25.2" lengthAdjust="spacingAndGlyphs" fill="#7FB685" xml:space="preserve"> +2</text><text x="562.8" y="208.04" textLength="25.2" lengthAdjust="spacingAndGlyphs" fill="#D9A54A" xml:space="preserve"> ~3</text><text x="588.0" y="208.04" textLength="25.2" lengthAdjust="spacingAndGlyphs" fill="#7A7A7A" xml:space="preserve"> ↑1</text><text x="613.2" y="208.04" textLength="25.2" lengthAdjust="spacingAndGlyphs" fill="#3A3A3A" xml:space="preserve"> │ </text><text x="638.4" y="208.04" textLength="33.6" lengthAdjust="spacingAndGlyphs" fill="#7A7A7A" xml:space="preserve">ctx </text><text x="672.0" y="208.04" textLength="33.6" lengthAdjust="spacingAndGlyphs" fill="#7FB685" xml:space="preserve">━━━━</text><text x="705.6" y="208.04" textLength="58.8" lengthAdjust="spacingAndGlyphs" fill="#3A3A3A" xml:space="preserve">────── </text><text x="764.4" y="208.04" textLength="25.2" lengthAdjust="spacingAndGlyphs" fill="#7FB685" font-weight="700" xml:space="preserve">42%</text><text x="789.6" y="208.04" textLength="75.6" lengthAdjust="spacingAndGlyphs" fill="#7A7A7A" xml:space="preserve"> 84k/200k</text><text x="865.2" y="208.04" textLength="25.2" lengthAdjust="spacingAndGlyphs" fill="#3A3A3A" xml:space="preserve"> │ </text><text x="890.4" y="208.04" textLength="25.2" lengthAdjust="spacingAndGlyphs" fill="#7A7A7A" xml:space="preserve">5h </text><text x="915.6" y="208.04" textLength="50.4" lengthAdjust="spacingAndGlyphs" fill="#7FB685" xml:space="preserve">━━━━━━</text><text x="966.0" y="208.04" textLength="25.2" lengthAdjust="spacingAndGlyphs" fill="#3A3A3A" xml:space="preserve">── </text><text x="991.2" y="208.04" textLength="25.2" lengthAdjust="spacingAndGlyphs" fill="#7FB685" font-weight="700" xml:space="preserve">72%</text><text x="1016.4" y="208.04" textLength="100.8" lengthAdjust="spacingAndGlyphs" fill="#7A7A7A" xml:space="preserve"> left ↻2h14m</text><text x="1117.2" y="208.04" textLength="25.2" lengthAdjust="spacingAndGlyphs" fill="#3A3A3A" xml:space="preserve"> │ </text><text x="1142.4" y="208.04" textLength="25.2" lengthAdjust="spacingAndGlyphs" fill="#7A7A7A" xml:space="preserve">7d </text><text x="1167.6" y="208.04" textLength="42.0" lengthAdjust="spacingAndGlyphs" fill="#7FB685" xml:space="preserve">━━━━╸</text><text x="1209.6" y="208.04" textLength="33.6" lengthAdjust="spacingAndGlyphs" fill="#3A3A3A" xml:space="preserve">─── </text><text x="1243.2" y="208.04" textLength="25.2" lengthAdjust="spacingAndGlyphs" fill="#7FB685" font-weight="700" xml:space="preserve">59%</text><text x="1268.4" y="208.04" textLength="75.6" lengthAdjust="spacingAndGlyphs" fill="#7A7A7A" xml:space="preserve"> left ↻3d</text><text x="1344.0" y="208.04" textLength="25.2" lengthAdjust="spacingAndGlyphs" fill="#3A3A3A" xml:space="preserve"> │ </text><text x="1369.2" y="208.04" textLength="42.0" lengthAdjust="spacingAndGlyphs" fill="#CFCFCF" xml:space="preserve">$1.42</text><text x="1411.2" y="208.04" textLength="58.8" lengthAdjust="spacingAndGlyphs" fill="#7A7A7A" xml:space="preserve">  ◷ 23m</text></svg>
