<svg xmlns="http://www.w3.org/2000/svg" width="1756" height="322" viewBox="0 0 1756 322" font-family="'JetBrains Mono', 'SF Mono', Menlo, Consolas, monospace" font-size="14"><rect width="100%" height="100%" rx="12" fill="#ECE9E1"/><text x="20" y="45" fill="#5E5A51" font-size="12">190 cols</text><rect x="112" y="20" width="1624" height="42" rx="8" fill="#1A1917"/><rect x="126.0" y="28" width="34.2" height="26.6" fill="#33302C" shape-rendering="crispEdges"/><text x="126.0" y="46.04" textLength="33.6" lengthAdjust="spacingAndGlyphs" fill="#E8E5DA" xml:space="preserve"> you</text><rect x="159.6" y="28" width="9.0" height="26.6" fill="#33302C" shape-rendering="crispEdges"/><text x="159.6" y="46.04" textLength="8.4" lengthAdjust="spacingAndGlyphs" fill="#8C877B" xml:space="preserve">@</text><rect x="168.0" y="28" width="59.4" height="26.6" fill="#33302C" shape-rendering="crispEdges"/><text x="168.0" y="46.04" textLength="58.8" lengthAdjust="spacingAndGlyphs" fill="#E8E5DA" xml:space="preserve">macbook</text><rect x="226.8" y="28" width="25.8" height="26.6" fill="#33302C" shape-rendering="crispEdges"/><text x="226.8" y="46.04" textLength="25.2" lengthAdjust="spacingAndGlyphs" fill="#5E5951" xml:space="preserve"> │ </text><rect x="252.0" y="28" width="17.4" height="26.6" fill="#33302C" shape-rendering="crispEdges"/><text x="252.0" y="46.04" textLength="16.8" lengthAdjust="spacingAndGlyphs" fill="#D97757" xml:space="preserve">✻ </text><rect x="268.8" y="28" width="67.8" height="26.6" fill="#33302C" shape-rendering="crispEdges"/><text x="268.8" y="46.04" textLength="67.2" lengthAdjust="spacingAndGlyphs" fill="#E8E5DA" font-weight="700" xml:space="preserve">Opus 5.5</text><rect x="336.0" y="28" width="42.6" height="26.6" fill="#33302C" shape-rendering="crispEdges"/><text x="336.0" y="46.04" textLength="42.0" lengthAdjust="spacingAndGlyphs" fill="#D97757" xml:space="preserve"> ●●●●</text><rect x="378.0" y="28" width="9.0" height="26.6" fill="#33302C" shape-rendering="crispEdges"/><text x="378.0" y="46.04" textLength="8.4" lengthAdjust="spacingAndGlyphs" fill="#524D45" xml:space="preserve">○</text><rect x="386.4" y="28" width="25.8" height="26.6" fill="#33302C" shape-rendering="crispEdges"/><text x="386.4" y="46.04" textLength="25.2" lengthAdjust="spacingAndGlyphs" fill="#5E5951" xml:space="preserve"> │ </text><rect x="411.6" y="28" width="177.0" height="26.6" fill="#33302C" shape-rendering="crispEdges"/><text x="411.6" y="46.04" textLength="176.4" lengthAdjust="spacingAndGlyphs" fill="#E8E5DA" font-weight="700" xml:space="preserve">~/code/cc-status-band</text><rect x="588.0" y="28" width="25.8" height="26.6" fill="#33302C" shape-rendering="crispEdges"/><text x="588.0" y="46.04" textLength="25.2" lengthAdjust="spacingAndGlyphs" fill="#5E5951" xml:space="preserve"> │ </text><rect x="613.2" y="28" width="17.4" height="26.6" fill="#33302C" shape-rendering="crispEdges"/><text x="613.2" y="46.04" textLength="16.8" lengthAdjust="spacingAndGlyphs" fill="#D97757" xml:space="preserve">⎇ </text><rect x="630.0" y="28" width="34.2" height="26.6" fill="#33302C" shape-rendering="crispEdges"/><text x="630.0" y="46.04" textLength="33.6" lengthAdjust="spacingAndGlyphs" fill="#E8E5DA" xml:space="preserve">main</text><rect x="663.6" y="28" width="25.8" height="26.6" fill="#33302C" shape-rendering="crispEdges"/><text x="663.6" y="46.04" textLength="25.2" lengthAdjust="spacingAndGlyphs" fill="#A3C281" xml:space="preserve"> +2</text><rect x="688.8" y="28" width="25.8" height="26.6" fill="#33302C" shape-rendering="crispEdges"/><text x="688.8" y="46.04" textLength="25.2" lengthAdjust="spacingAndGlyphs" fill="#E9B44C" xml:space="preserve"> ~3</text><rect x="714.0" y="28" width="202.2" height="26.6" fill="#33302C" shape-rendering="crispEdges"/><text x="714.0" y="46.04" textLength="201.6" lengthAdjust="spacingAndGlyphs" fill="#8C877B" xml:space="preserve"> ↑1                 ctx </text><rect x="915.6" y="28" width="34.2" height="26.6" fill="#33302C" shape-rendering="crispEdges"/><text x="915.6" y="46.04" textLength="33.6" lengthAdjust="spacingAndGlyphs" fill="#A3C281" xml:space="preserve">━━━━</text><rect x="949.2" y="28" width="59.4" height="26.6" fill="#33302C" shape-rendering="crispEdges"/><text x="949.2" y="46.04" textLength="58.8" lengthAdjust="spacingAndGlyphs" fill="#524D45" xml:space="preserve">────── </text><rect x="1008.0" y="28" width="25.8" height="26.6" fill="#33302C" shape-rendering="crispEdges"/><text x="1008.0" y="46.04" textLength="25.2" lengthAdjust="spacingAndGlyphs" fill="#A3C281" font-weight="700" xml:space="preserve">42%</text><rect x="1033.2" y="28" width="76.2" height="26.6" fill="#33302C" shape-rendering="crispEdges"/><text x="1033.2" y="46.04" textLength="75.6" lengthAdjust="spacingAndGlyphs" fill="#8C877B" xml:space="preserve"> 84k/200k</text><rect x="1108.8" y="28" width="25.8" height="26.6" fill="#33302C" shape-rendering="crispEdges"/><text x="1108.8" y="46.04" textLength="25.2" lengthAdjust="spacingAndGlyphs" fill="#5E5951" xml:space="preserve"> │ </text><rect x="1134.0" y="28" width="25.8" height="26.6" fill="#33302C" shape-rendering="crispEdges"/><text x="1134.0" y="46.04" textLength="25.2" lengthAdjust="spacingAndGlyphs" fill="#8C877B" xml:space="preserve">5h </text><rect x="1159.2" y="28" width="51.0" height="26.6" fill="#33302C" shape-rendering="crispEdges"/><text x="1159.2" y="46.04" textLength="50.4" lengthAdjust="spacingAndGlyphs" fill="#A3C281" xml:space="preserve">━━━━━━</text><rect x="1209.6" y="28" width="25.8" height="26.6" fill="#33302C" shape-rendering="crispEdges"/><text x="1209.6" y="46.04" textLength="25.2" lengthAdjust="spacingAndGlyphs" fill="#524D45" xml:space="preserve">── </text><rect x="1234.8" y="28" width="25.8" height="26.6" fill="#33302C" shape-rendering="crispEdges"/><text x="1234.8" y="46.04" textLength="25.2" lengthAdjust="spacingAndGlyphs" fill="#A3C281" font-weight="700" xml:space="preserve">72%</text><rect x="1260.0" y="28" width="101.4" height="26.6" fill="#33302C" shape-rendering="crispEdges"/><text x="1260.0" y="46.04" textLength="100.8" lengthAdjust="spacingAndGlyphs" fill="#8C877B" xml:space="preserve"> left ↻2h14m</text><rect x="1360.8" y="28" width="25.8" height="26.6" fill="#33302C" shape-rendering="crispEdges"/><text x="1360.8" y="46.04" textLength="25.2" lengthAdjust="spacingAndGlyphs" fill="#5E5951" xml:space="preserve"> │ </text><rect x="1386.0" y="28" width="25.8" height="26.6" fill="#33302C" shape-rendering="crispEdges"/><text x="1386.0" y="46.04" textLength="25.2" lengthAdjust="spacingAndGlyphs" fill="#8C877B" xml:space="preserve">7d </text><rect x="1411.2" y="28" width="42.6" height="26.6" fill="#33302C" shape-rendering="crispEdges"/><text x="1411.2" y="46.04" textLength="42.0" lengthAdjust="spacingAndGlyphs" fill="#A3C281" xml:space="preserve">━━━━╸</text><rect x="1453.2" y="28" width="34.2" height="26.6" fill="#33302C" shape-rendering="crispEdges"/><text x="1453.2" y="46.04" textLength="33.6" lengthAdjust="spacingAndGlyphs" fill="#524D45" xml:space="preserve">─── </text><rect x="1486.8" y="28" width="25.8" height="26.6" fill="#33302C" shape-rendering="crispEdges"/><text x="1486.8" y="46.04" textLength="25.2" lengthAdjust="spacingAndGlyphs" fill="#A3C281" font-weight="700" xml:space="preserve">59%</text><rect x="1512.0" y="28" width="76.2" height="26.6" fill="#33302C" shape-rendering="crispEdges"/><text x="1512.0" y="46.04" textLength="75.6" lengthAdjust="spacingAndGlyphs" fill="#8C877B" xml:space="preserve"> left ↻3d</text><rect x="1587.6" y="28" width="25.8" height="26.6" fill="#33302C" shape-rendering="crispEdges"/><text x="1587.6" y="46.04" textLength="25.2" lengthAdjust="spacingAndGlyphs" fill="#5E5951" xml:space="preserve"> │ </text><rect x="1612.8" y="28" width="42.6" height="26.6" fill="#33302C" shape-rendering="crispEdges"/><text x="1612.8" y="46.04" textLength="42.0" lengthAdjust="spacingAndGlyphs" fill="#E8E5DA" xml:space="preserve">$1.42</text><rect x="1654.8" y="28" width="67.8" height="26.6" fill="#33302C" shape-rendering="crispEdges"/><text x="1654.8" y="46.04" textLength="67.2" lengthAdjust="spacingAndGlyphs" fill="#8C877B" xml:space="preserve">  ◷ 23m </text><text x="20" y="112" fill="#5E5A51" font-size="12">140 cols</text><rect x="112" y="74" width="1204" height="68" rx="8" fill="#1A1917"/><rect x="126.0" y="82" width="34.2" height="26.6" fill="#33302C" shape-rendering="crispEdges"/><text x="126.0" y="100.04" textLength="33.6" lengthAdjust="spacingAndGlyphs" fill="#E8E5DA" xml:space="preserve"> you</text><rect x="159.6" y="82" width="9.0" height="26.6" fill="#33302C" shape-rendering="crispEdges"/><text x="159.6" y="100.04" textLength="8.4" lengthAdjust="spacingAndGlyphs" fill="#8C877B" xml:space="preserve">@</text><rect x="168.0" y="82" width="59.4" height="26.6" fill="#33302C" shape-rendering="crispEdges"/><text x="168.0" y="100.04" textLength="58.8" lengthAdjust="spacingAndGlyphs" fill="#E8E5DA" xml:space="preserve">macbook</text><rect x="226.8" y="82" width="25.8" height="26.6" fill="#33302C" shape-rendering="crispEdges"/><text x="226.8" y="100.04" textLength="25.2" lengthAdjust="spacingAndGlyphs" fill="#5E5951" xml:space="preserve"> │ </text><rect x="252.0" y="82" width="17.4" height="26.6" fill="#33302C" shape-rendering="crispEdges"/><text x="252.0" y="100.04" textLength="16.8" lengthAdjust="spacingAndGlyphs" fill="#D97757" xml:space="preserve">✻ </text><rect x="268.8" y="82" width="67.8" height="26.6" fill="#33302C" shape-rendering="crispEdges"/><text x="268.8" y="100.04" textLength="67.2" lengthAdjust="spacingAndGlyphs" fill="#E8E5DA" font-weight="700" xml:space="preserve">Opus 5.5</text><rect x="336.0" y="82" width="42.6" height="26.6" fill="#33302C" shape-rendering="crispEdges"/><text x="336.0" y="100.04" textLength="42.0" lengthAdjust="spacingAndGlyphs" fill="#D97757" xml:space="preserve"> ●●●●</text><rect x="378.0" y="82" width="9.0" height="26.6" fill="#33302C" shape-rendering="crispEdges"/><text x="378.0" y="100.04" textLength="8.4" lengthAdjust="spacingAndGlyphs" fill="#524D45" xml:space="preserve">○</text><rect x="386.4" y="82" width="25.8" height="26.6" fill="#33302C" shape-rendering="crispEdges"/><text x="386.4" y="100.04" textLength="25.2" lengthAdjust="spacingAndGlyphs" fill="#5E5951" xml:space="preserve"> │ </text><rect x="411.6" y="82" width="177.0" height="26.6" fill="#33302C" shape-rendering="crispEdges"/><text x="411.6" y="100.04" textLength="176.4" lengthAdjust="spacingAndGlyphs" fill="#E8E5DA" font-weight="700" xml:space="preserve">~/code/cc-status-band</text><rect x="588.0" y="82" width="25.8" height="26.6" fill="#33302C" shape-rendering="crispEdges"/><text x="588.0" y="100.04" textLength="25.2" lengthAdjust="spacingAndGlyphs" fill="#5E5951" xml:space="preserve"> │ </text><rect x="613.2" y="82" width="17.4" height="26.6" fill="#33302C" shape-rendering="crispEdges"/><text x="613.2" y="100.04" textLength="16.8" lengthAdjust="spacingAndGlyphs" fill="#D97757" xml:space="preserve">⎇ </text><rect x="630.0" y="82" width="34.2" height="26.6" fill="#33302C" shape-rendering="crispEdges"/><text x="630.0" y="100.04" textLength="33.6" lengthAdjust="spacingAndGlyphs" fill="#E8E5DA" xml:space="preserve">main</text><rect x="663.6" y="82" width="25.8" height="26.6" fill="#33302C" shape-rendering="crispEdges"/><text x="663.6" y="100.04" textLength="25.2" lengthAdjust="spacingAndGlyphs" fill="#A3C281" xml:space="preserve"> +2</text><rect x="688.8" y="82" width="25.8" height="26.6" fill="#33302C" shape-rendering="crispEdges"/><text x="688.8" y="100.04" textLength="25.2" lengthAdjust="spacingAndGlyphs" fill="#E9B44C" xml:space="preserve"> ~3</text><rect x="714.0" y="82" width="588.6" height="26.6" fill="#33302C" shape-rendering="crispEdges"/><text x="714.0" y="100.04" textLength="588.0" lengthAdjust="spacingAndGlyphs" fill="#8C877B" xml:space="preserve"> ↑1                                                                   </text><rect x="126.0" y="108" width="9.0" height="26.6" fill="#33302C" shape-rendering="crispEdges"/><rect x="134.4" y="108" width="34.2" height="26.6" fill="#33302C" shape-rendering="crispEdges"/><text x="134.4" y="126.04" textLength="33.6" lengthAdjust="spacingAndGlyphs" fill="#8C877B" xml:space="preserve">ctx </text><rect x="168.0" y="108" width="34.2" height="26.6" fill="#33302C" shape-rendering="crispEdges"/><text x="168.0" y="126.04" textLength="33.6" lengthAdjust="spacingAndGlyphs" fill="#A3C281" xml:space="preserve">━━━━</text><rect x="201.6" y="108" width="59.4" height="26.6" fill="#33302C" shape-rendering="crispEdges"/><text x="201.6" y="126.04" textLength="58.8" lengthAdjust="spacingAndGlyphs" fill="#524D45" xml:space="preserve">────── </text><rect x="260.4" y="108" width="25.8" height="26.6" fill="#33302C" shape-rendering="crispEdges"/><text x="260.4" y="126.04" textLength="25.2" lengthAdjust="spacingAndGlyphs" fill="#A3C281" font-weight="700" xml:space="preserve">42%</text><rect x="285.6" y="108" width="76.2" height="26.6" fill="#33302C" shape-rendering="crispEdges"/><text x="285.6" y="126.04" textLength="75.6" lengthAdjust="spacingAndGlyphs" fill="#8C877B" xml:space="preserve"> 84k/200k</text><rect x="361.2" y="108" width="25.8" height="26.6" fill="#33302C" shape-rendering="crispEdges"/><text x="361.2" y="126.04" textLength="25.2" lengthAdjust="spacingAndGlyphs" fill="#5E5951" xml:space="preserve"> │ </text><rect x="386.4" y="108" width="25.8" height="26.6" fill="#33302C" shape-rendering="crispEdges"/><text x="386.4" y="126.04" textLength="25.2" lengthAdjust="spacingAndGlyphs" fill="#8C877B" xml:space="preserve">5h </text><rect x="411.6" y="108" width="51.0" height="26.6" fill="#33302C" shape-rendering="crispEdges"/><text x="411.6" y="126.04" textLength="50.4" lengthAdjust="spacingAndGlyphs" fill="#A3C281" xml:space="preserve">━━━━━━</text><rect x="462.0" y="108" width="25.8" height="26.6" fill="#33302C" shape-rendering="crispEdges"/><text x="462.0" y="126.04" textLength="25.2" lengthAdjust="spacingAndGlyphs" fill="#524D45" xml:space="preserve">── </text><rect x="487.2" y="108" width="25.8" height="26.6" fill="#33302C" shape-rendering="crispEdges"/><text x="487.2" y="126.04" textLength="25.2" lengthAdjust="spacingAndGlyphs" fill="#A3C281" font-weight="700" xml:space="preserve">72%</text><rect x="512.4" y="108" width="101.4" height="26.6" fill="#33302C" shape-rendering="crispEdges"/><text x="512.4" y="126.04" textLength="100.8" lengthAdjust="spacingAndGlyphs" fill="#8C877B" xml:space="preserve"> left ↻2h14m</text><rect x="613.2" y="108" width="25.8" height="26.6" fill="#33302C" shape-rendering="crispEdges"/><text x="613.2" y="126.04" textLength="25.2" lengthAdjust="spacingAndGlyphs" fill="#5E5951" xml:space="preserve"> │ </text><rect x="638.4" y="108" width="25.8" height="26.6" fill="#33302C" shape-rendering="crispEdges"/><text x="638.4" y="126.04" textLength="25.2" lengthAdjust="spacingAndGlyphs" fill="#8C877B" xml:space="preserve">7d </text><rect x="663.6" y="108" width="42.6" height="26.6" fill="#33302C" shape-rendering="crispEdges"/><text x="663.6" y="126.04" textLength="42.0" lengthAdjust="spacingAndGlyphs" fill="#A3C281" xml:space="preserve">━━━━╸</text><rect x="705.6" y="108" width="34.2" height="26.6" fill="#33302C" shape-rendering="crispEdges"/><text x="705.6" y="126.04" textLength="33.6" lengthAdjust="spacingAndGlyphs" fill="#524D45" xml:space="preserve">─── </text><rect x="739.2" y="108" width="25.8" height="26.6" fill="#33302C" shape-rendering="crispEdges"/><text x="739.2" y="126.04" textLength="25.2" lengthAdjust="spacingAndGlyphs" fill="#A3C281" font-weight="700" xml:space="preserve">59%</text><rect x="764.4" y="108" width="76.2" height="26.6" fill="#33302C" shape-rendering="crispEdges"/><text x="764.4" y="126.04" textLength="75.6" lengthAdjust="spacingAndGlyphs" fill="#8C877B" xml:space="preserve"> left ↻3d</text><rect x="840.0" y="108" width="25.8" height="26.6" fill="#33302C" shape-rendering="crispEdges"/><text x="840.0" y="126.04" textLength="25.2" lengthAdjust="spacingAndGlyphs" fill="#5E5951" xml:space="preserve"> │ </text><rect x="865.2" y="108" width="42.6" height="26.6" fill="#33302C" shape-rendering="crispEdges"/><text x="865.2" y="126.04" textLength="42.0" lengthAdjust="spacingAndGlyphs" fill="#E8E5DA" xml:space="preserve">$1.42</text><rect x="907.2" y="108" width="395.4" height="26.6" fill="#33302C" shape-rendering="crispEdges"/><text x="907.2" y="126.04" textLength="394.8" lengthAdjust="spacingAndGlyphs" fill="#8C877B" xml:space="preserve">  ◷ 23m                                        </text><text x="20" y="192" fill="#5E5A51" font-size="12">100 cols</text><rect x="112" y="154" width="868" height="68" rx="8" fill="#1A1917"/><rect x="126.0" y="162" width="34.2" height="26.6" fill="#33302C" shape-rendering="crispEdges"/><text x="126.0" y="180.04" textLength="33.6" lengthAdjust="spacingAndGlyphs" fill="#E8E5DA" xml:space="preserve"> you</text><rect x="159.6" y="162" width="9.0" height="26.6" fill="#33302C" shape-rendering="crispEdges"/><text x="159.6" y="180.04" textLength="8.4" lengthAdjust="spacingAndGlyphs" fill="#8C877B" xml:space="preserve">@</text><rect x="168.0" y="162" width="59.4" height="26.6" fill="#33302C" shape-rendering="crispEdges"/><text x="168.0" y="180.04" textLength="58.8" lengthAdjust="spacingAndGlyphs" fill="#E8E5DA" xml:space="preserve">macbook</text><rect x="226.8" y="162" width="25.8" height="26.6" fill="#33302C" shape-rendering="crispEdges"/><text x="226.8" y="180.04" textLength="25.2" lengthAdjust="spacingAndGlyphs" fill="#5E5951" xml:space="preserve"> │ </text><rect x="252.0" y="162" width="17.4" height="26.6" fill="#33302C" shape-rendering="crispEdges"/><text x="252.0" y="180.04" textLength="16.8" lengthAdjust="spacingAndGlyphs" fill="#D97757" xml:space="preserve">✻ </text><rect x="268.8" y="162" width="67.8" height="26.6" fill="#33302C" shape-rendering="crispEdges"/><text x="268.8" y="180.04" textLength="67.2" lengthAdjust="spacingAndGlyphs" fill="#E8E5DA" font-weight="700" xml:space="preserve">Opus 5.5</text><rect x="336.0" y="162" width="42.6" height="26.6" fill="#33302C" shape-rendering="crispEdges"/><text x="336.0" y="180.04" textLength="42.0" lengthAdjust="spacingAndGlyphs" fill="#D97757" xml:space="preserve"> ●●●●</text><rect x="378.0" y="162" width="9.0" height="26.6" fill="#33302C" shape-rendering="crispEdges"/><text x="378.0" y="180.04" textLength="8.4" lengthAdjust="spacingAndGlyphs" fill="#524D45" xml:space="preserve">○</text><rect x="386.4" y="162" width="25.8" height="26.6" fill="#33302C" shape-rendering="crispEdges"/><text x="386.4" y="180.04" textLength="25.2" lengthAdjust="spacingAndGlyphs" fill="#5E5951" xml:space="preserve"> │ </text><rect x="411.6" y="162" width="177.0" height="26.6" fill="#33302C" shape-rendering="crispEdges"/><text x="411.6" y="180.04" textLength="176.4" lengthAdjust="spacingAndGlyphs" fill="#E8E5DA" font-weight="700" xml:space="preserve">~/code/cc-status-band</text><rect x="588.0" y="162" width="25.8" height="26.6" fill="#33302C" shape-rendering="crispEdges"/><text x="588.0" y="180.04" textLength="25.2" lengthAdjust="spacingAndGlyphs" fill="#5E5951" xml:space="preserve"> │ </text><rect x="613.2" y="162" width="17.4" height="26.6" fill="#33302C" shape-rendering="crispEdges"/><text x="613.2" y="180.04" textLength="16.8" lengthAdjust="spacingAndGlyphs" fill="#D97757" xml:space="preserve">⎇ </text><rect x="630.0" y="162" width="34.2" height="26.6" fill="#33302C" shape-rendering="crispEdges"/><text x="630.0" y="180.04" textLength="33.6" lengthAdjust="spacingAndGlyphs" fill="#E8E5DA" xml:space="preserve">main</text><rect x="663.6" y="162" width="25.8" height="26.6" fill="#33302C" shape-rendering="crispEdges"/><text x="663.6" y="180.04" textLength="25.2" lengthAdjust="spacingAndGlyphs" fill="#A3C281" xml:space="preserve"> +2</text><rect x="688.8" y="162" width="25.8" height="26.6" fill="#33302C" shape-rendering="crispEdges"/><text x="688.8" y="180.04" textLength="25.2" lengthAdjust="spacingAndGlyphs" fill="#E9B44C" xml:space="preserve"> ~3</text><rect x="714.0" y="162" width="252.6" height="26.6" fill="#33302C" shape-rendering="crispEdges"/><text x="714.0" y="180.04" textLength="252.0" lengthAdjust="spacingAndGlyphs" fill="#8C877B" xml:space="preserve"> ↑1                           </text><rect x="126.0" y="188" width="9.0" height="26.6" fill="#33302C" shape-rendering="crispEdges"/><rect x="134.4" y="188" width="34.2" height="26.6" fill="#33302C" shape-rendering="crispEdges"/><text x="134.4" y="206.04" textLength="33.6" lengthAdjust="spacingAndGlyphs" fill="#8C877B" xml:space="preserve">ctx </text><rect x="168.0" y="188" width="25.8" height="26.6" fill="#33302C" shape-rendering="crispEdges"/><text x="168.0" y="206.04" textLength="25.2" lengthAdjust="spacingAndGlyphs" fill="#A3C281" xml:space="preserve">━━╸</text><rect x="193.2" y="188" width="34.2" height="26.6" fill="#33302C" shape-rendering="crispEdges"/><text x="193.2" y="206.04" textLength="33.6" lengthAdjust="spacingAndGlyphs" fill="#524D45" xml:space="preserve">─── </text><rect x="226.8" y="188" width="25.8" height="26.6" fill="#33302C" shape-rendering="crispEdges"/><text x="226.8" y="206.04" textLength="25.2" lengthAdjust="spacingAndGlyphs" fill="#A3C281" font-weight="700" xml:space="preserve">42%</text><rect x="252.0" y="188" width="25.8" height="26.6" fill="#33302C" shape-rendering="crispEdges"/><text x="252.0" y="206.04" textLength="25.2" lengthAdjust="spacingAndGlyphs" fill="#5E5951" xml:space="preserve"> │ </text><rect x="277.2" y="188" width="25.8" height="26.6" fill="#33302C" shape-rendering="crispEdges"/><text x="277.2" y="206.04" textLength="25.2" lengthAdjust="spacingAndGlyphs" fill="#8C877B" xml:space="preserve">5h </text><rect x="302.4" y="188" width="51.0" height="26.6" fill="#33302C" shape-rendering="crispEdges"/><text x="302.4" y="206.04" textLength="50.4" lengthAdjust="spacingAndGlyphs" fill="#A3C281" xml:space="preserve">━━━━━━</text><rect x="352.8" y="188" width="25.8" height="26.6" fill="#33302C" shape-rendering="crispEdges"/><text x="352.8" y="206.04" textLength="25.2" lengthAdjust="spacingAndGlyphs" fill="#524D45" xml:space="preserve">── </text><rect x="378.0" y="188" width="25.8" height="26.6" fill="#33302C" shape-rendering="crispEdges"/><text x="378.0" y="206.04" textLength="25.2" lengthAdjust="spacingAndGlyphs" fill="#A3C281" font-weight="700" xml:space="preserve">72%</text><rect x="403.2" y="188" width="101.4" height="26.6" fill="#33302C" shape-rendering="crispEdges"/><text x="403.2" y="206.04" textLength="100.8" lengthAdjust="spacingAndGlyphs" fill="#8C877B" xml:space="preserve"> left ↻2h14m</text><rect x="504.0" y="188" width="25.8" height="26.6" fill="#33302C" shape-rendering="crispEdges"/><text x="504.0" y="206.04" textLength="25.2" lengthAdjust="spacingAndGlyphs" fill="#5E5951" xml:space="preserve"> │ </text><rect x="529.2" y="188" width="25.8" height="26.6" fill="#33302C" shape-rendering="crispEdges"/><text x="529.2" y="206.04" textLength="25.2" lengthAdjust="spacingAndGlyphs" fill="#8C877B" xml:space="preserve">7d </text><rect x="554.4" y="188" width="42.6" height="26.6" fill="#33302C" shape-rendering="crispEdges"/><text x="554.4" y="206.04" textLength="42.0" lengthAdjust="spacingAndGlyphs" fill="#A3C281" xml:space="preserve">━━━━╸</text><rect x="596.4" y="188" width="34.2" height="26.6" fill="#33302C" shape-rendering="crispEdges"/><text x="596.4" y="206.04" textLength="33.6" lengthAdjust="spacingAndGlyphs" fill="#524D45" xml:space="preserve">─── </text><rect x="630.0" y="188" width="25.8" height="26.6" fill="#33302C" shape-rendering="crispEdges"/><text x="630.0" y="206.04" textLength="25.2" lengthAdjust="spacingAndGlyphs" fill="#A3C281" font-weight="700" xml:space="preserve">59%</text><rect x="655.2" y="188" width="76.2" height="26.6" fill="#33302C" shape-rendering="crispEdges"/><text x="655.2" y="206.04" textLength="75.6" lengthAdjust="spacingAndGlyphs" fill="#8C877B" xml:space="preserve"> left ↻3d</text><rect x="730.8" y="188" width="25.8" height="26.6" fill="#33302C" shape-rendering="crispEdges"/><text x="730.8" y="206.04" textLength="25.2" lengthAdjust="spacingAndGlyphs" fill="#5E5951" xml:space="preserve"> │ </text><rect x="756.0" y="188" width="42.6" height="26.6" fill="#33302C" shape-rendering="crispEdges"/><text x="756.0" y="206.04" textLength="42.0" lengthAdjust="spacingAndGlyphs" fill="#E8E5DA" xml:space="preserve">$1.42</text><rect x="798.0" y="188" width="168.6" height="26.6" fill="#33302C" shape-rendering="crispEdges"/><text x="798.0" y="206.04" textLength="168.0" lengthAdjust="spacingAndGlyphs" fill="#8C877B" xml:space="preserve">  ◷ 23m             </text><text x="20" y="272" fill="#5E5A51" font-size="12">72 cols</text><rect x="112" y="234" width="632.8000000000001" height="68" rx="8" fill="#1A1917"/><rect x="126.0" y="242" width="34.2" height="26.6" fill="#33302C" shape-rendering="crispEdges"/><text x="126.0" y="260.04" textLength="33.6" lengthAdjust="spacingAndGlyphs" fill="#E8E5DA" xml:space="preserve"> you</text><rect x="159.6" y="242" width="9.0" height="26.6" fill="#33302C" shape-rendering="crispEdges"/><text x="159.6" y="260.04" textLength="8.4" lengthAdjust="spacingAndGlyphs" fill="#8C877B" xml:space="preserve">@</text><rect x="168.0" y="242" width="59.4" height="26.6" fill="#33302C" shape-rendering="crispEdges"/><text x="168.0" y="260.04" textLength="58.8" lengthAdjust="spacingAndGlyphs" fill="#E8E5DA" xml:space="preserve">macbook</text><rect x="226.8" y="242" width="25.8" height="26.6" fill="#33302C" shape-rendering="crispEdges"/><text x="226.8" y="260.04" textLength="25.2" lengthAdjust="spacingAndGlyphs" fill="#5E5951" xml:space="preserve"> │ </text><rect x="252.0" y="242" width="17.4" height="26.6" fill="#33302C" shape-rendering="crispEdges"/><text x="252.0" y="260.04" textLength="16.8" lengthAdjust="spacingAndGlyphs" fill="#D97757" xml:space="preserve">✻ </text><rect x="268.8" y="242" width="67.8" height="26.6" fill="#33302C" shape-rendering="crispEdges"/><text x="268.8" y="260.04" textLength="67.2" lengthAdjust="spacingAndGlyphs" fill="#E8E5DA" font-weight="700" xml:space="preserve">Opus 5.5</text><rect x="336.0" y="242" width="42.6" height="26.6" fill="#33302C" shape-rendering="crispEdges"/><text x="336.0" y="260.04" textLength="42.0" lengthAdjust="spacingAndGlyphs" fill="#D97757" xml:space="preserve"> ●●●●</text><rect x="378.0" y="242" width="9.0" height="26.6" fill="#33302C" shape-rendering="crispEdges"/><text x="378.0" y="260.04" textLength="8.4" lengthAdjust="spacingAndGlyphs" fill="#524D45" xml:space="preserve">○</text><rect x="386.4" y="242" width="25.8" height="26.6" fill="#33302C" shape-rendering="crispEdges"/><text x="386.4" y="260.04" textLength="25.2" lengthAdjust="spacingAndGlyphs" fill="#5E5951" xml:space="preserve"> │ </text><rect x="411.6" y="242" width="177.0" height="26.6" fill="#33302C" shape-rendering="crispEdges"/><text x="411.6" y="260.04" textLength="176.4" lengthAdjust="spacingAndGlyphs" fill="#E8E5DA" font-weight="700" xml:space="preserve">~/code/cc-status-band</text><rect x="588.0" y="242" width="25.8" height="26.6" fill="#33302C" shape-rendering="crispEdges"/><text x="588.0" y="260.04" textLength="25.2" lengthAdjust="spacingAndGlyphs" fill="#5E5951" xml:space="preserve"> │ </text><rect x="613.2" y="242" width="17.4" height="26.6" fill="#33302C" shape-rendering="crispEdges"/><text x="613.2" y="260.04" textLength="16.8" lengthAdjust="spacingAndGlyphs" fill="#D97757" xml:space="preserve">⎇ </text><rect x="630.0" y="242" width="34.2" height="26.6" fill="#33302C" shape-rendering="crispEdges"/><text x="630.0" y="260.04" textLength="33.6" lengthAdjust="spacingAndGlyphs" fill="#E8E5DA" xml:space="preserve">main</text><rect x="663.6" y="242" width="67.8" height="26.6" fill="#33302C" shape-rendering="crispEdges"/><text x="663.6" y="260.04" textLength="67.2" lengthAdjust="spacingAndGlyphs" fill="#E9B44C" xml:space="preserve"> ●      </text><rect x="126.0" y="268" width="9.0" height="26.6" fill="#33302C" shape-rendering="crispEdges"/><rect x="134.4" y="268" width="34.2" height="26.6" fill="#33302C" shape-rendering="crispEdges"/><text x="134.4" y="286.04" textLength="33.6" lengthAdjust="spacingAndGlyphs" fill="#8C877B" xml:space="preserve">ctx </text><rect x="168.0" y="268" width="25.8" height="26.6" fill="#33302C" shape-rendering="crispEdges"/><text x="168.0" y="286.04" textLength="25.2" lengthAdjust="spacingAndGlyphs" fill="#A3C281" xml:space="preserve">━━╸</text><rect x="193.2" y="268" width="34.2" height="26.6" fill="#33302C" shape-rendering="crispEdges"/><text x="193.2" y="286.04" textLength="33.6" lengthAdjust="spacingAndGlyphs" fill="#524D45" xml:space="preserve">─── </text><rect x="226.8" y="268" width="25.8" height="26.6" fill="#33302C" shape-rendering="crispEdges"/><text x="226.8" y="286.04" textLength="25.2" lengthAdjust="spacingAndGlyphs" fill="#A3C281" font-weight="700" xml:space="preserve">42%</text><rect x="252.0" y="268" width="25.8" height="26.6" fill="#33302C" shape-rendering="crispEdges"/><text x="252.0" y="286.04" textLength="25.2" lengthAdjust="spacingAndGlyphs" fill="#5E5951" xml:space="preserve"> │ </text><rect x="277.2" y="268" width="25.8" height="26.6" fill="#33302C" shape-rendering="crispEdges"/><text x="277.2" y="286.04" textLength="25.2" lengthAdjust="spacingAndGlyphs" fill="#8C877B" xml:space="preserve">5h </text><rect x="302.4" y="268" width="34.2" height="26.6" fill="#33302C" shape-rendering="crispEdges"/><text x="302.4" y="286.04" textLength="33.6" lengthAdjust="spacingAndGlyphs" fill="#A3C281" xml:space="preserve">━━━╸</text><rect x="336.0" y="268" width="17.4" height="26.6" fill="#33302C" shape-rendering="crispEdges"/><text x="336.0" y="286.04" textLength="16.8" lengthAdjust="spacingAndGlyphs" fill="#524D45" xml:space="preserve">─ </text><rect x="352.8" y="268" width="25.8" height="26.6" fill="#33302C" shape-rendering="crispEdges"/><text x="352.8" y="286.04" textLength="25.2" lengthAdjust="spacingAndGlyphs" fill="#A3C281" font-weight="700" xml:space="preserve">72%</text><rect x="378.0" y="268" width="59.4" height="26.6" fill="#33302C" shape-rendering="crispEdges"/><text x="378.0" y="286.04" textLength="58.8" lengthAdjust="spacingAndGlyphs" fill="#8C877B" xml:space="preserve"> ↻2h14m</text><rect x="436.8" y="268" width="25.8" height="26.6" fill="#33302C" shape-rendering="crispEdges"/><text x="436.8" y="286.04" textLength="25.2" lengthAdjust="spacingAndGlyphs" fill="#5E5951" xml:space="preserve"> │ </text><rect x="462.0" y="268" width="25.8" height="26.6" fill="#33302C" shape-rendering="crispEdges"/><text x="462.0" y="286.04" textLength="25.2" lengthAdjust="spacingAndGlyphs" fill="#8C877B" xml:space="preserve">7d </text><rect x="487.2" y="268" width="25.8" height="26.6" fill="#33302C" shape-rendering="crispEdges"/><text x="487.2" y="286.04" textLength="25.2" lengthAdjust="spacingAndGlyphs" fill="#A3C281" xml:space="preserve">━━━</text><rect x="512.4" y="268" width="25.8" height="26.6" fill="#33302C" shape-rendering="crispEdges"/><text x="512.4" y="286.04" textLength="25.2" lengthAdjust="spacingAndGlyphs" fill="#524D45" xml:space="preserve">── </text><rect x="537.6" y="268" width="25.8" height="26.6" fill="#33302C" shape-rendering="crispEdges"/><text x="537.6" y="286.04" textLength="25.2" lengthAdjust="spacingAndGlyphs" fill="#A3C281" font-weight="700" xml:space="preserve">59%</text><rect x="562.8" y="268" width="34.2" height="26.6" fill="#33302C" shape-rendering="crispEdges"/><text x="562.8" y="286.04" textLength="33.6" lengthAdjust="spacingAndGlyphs" fill="#8C877B" xml:space="preserve"> ↻3d</text><rect x="596.4" y="268" width="25.8" height="26.6" fill="#33302C" shape-rendering="crispEdges"/><text x="596.4" y="286.04" textLength="25.2" lengthAdjust="spacingAndGlyphs" fill="#5E5951" xml:space="preserve"> │ </text><rect x="621.6" y="268" width="42.6" height="26.6" fill="#33302C" shape-rendering="crispEdges"/><text x="621.6" y="286.04" textLength="42.0" lengthAdjust="spacingAndGlyphs" fill="#E8E5DA" xml:space="preserve">$1.42</text><rect x="663.6" y="268" width="67.8" height="26.6" fill="#33302C" shape-rendering="crispEdges"/><text x="663.6" y="286.04" textLength="67.2" lengthAdjust="spacingAndGlyphs" fill="#8C877B" xml:space="preserve">  ◷ 23m </text></svg>
